HIERARCHY
ROOT Hips
{
 OFFSET 0.000000 0.000000 0.000000
 CHANNELS 6 Xposition Yposition Zposition Yrotation Xrotation Zrotation
 JOINT Chest
 {
  OFFSET 0.000000 9.588913 -0.003946
  CHANNELS 3 Yrotation Xrotation Zrotation
  JOINT Chest2
  {
   OFFSET 0.000000 9.541882 0.008053
   CHANNELS 3 Yrotation Xrotation Zrotation
   JOINT Chest3
   {
    OFFSET 0.000000 9.501360 0.000000
    CHANNELS 3 Yrotation Xrotation Zrotation
    JOINT Chest4
    {
     OFFSET 0.000000 9.491660 0.000000
     CHANNELS 3 Yrotation Xrotation Zrotation
     JOINT Neck
     {
      OFFSET 0.000000 14.331917 0.000000
      CHANNELS 3 Yrotation Xrotation Zrotation
      JOINT Head
      {
       OFFSET 0.000000 8.884799 0.017034
       CHANNELS 3 Yrotation Xrotation Zrotation
       End Site
       {
        OFFSET 0.000000 16.896195 0.008993
       }
      }
     }
     JOINT RightCollar
     {
      OFFSET -2.923010 9.499495 0.000000
      CHANNELS 3 Yrotation Xrotation Zrotation
      JOINT RightShoulder
      {
       OFFSET -13.795216 0.000000 0.000000
       CHANNELS 3 Yrotation Xrotation Zrotation
       JOINT RightElbow
       {
        OFFSET -30.272209 0.000000 0.000000
        CHANNELS 3 Yrotation Xrotation Zrotation
        JOINT RightWrist
        {
         OFFSET -24.478199 0.000000 0.000000
         CHANNELS 3 Yrotation Xrotation Zrotation
         End Site
         {
          OFFSET -18.090752 0.000000 0.000000
         }
        }
       }
      }
     }
     JOINT LeftCollar
     {
      OFFSET 2.923010 9.499495 0.000000
      CHANNELS 3 Yrotation Xrotation Zrotation
      JOINT LeftShoulder
      {
       OFFSET 13.795216 0.000000 0.000000
       CHANNELS 3 Yrotation Xrotation Zrotation
       JOINT LeftElbow
       {
        OFFSET 30.272209 0.000000 0.000000
        CHANNELS 3 Yrotation Xrotation Zrotation
        JOINT LeftWrist
        {
         OFFSET 24.478199 0.000000 0.000000
         CHANNELS 3 Yrotation Xrotation Zrotation
         End Site
         {
          OFFSET 18.090752 0.000000 0.000000
         }
        }
       }
      }
     }
    }
   }
  }
 }
 JOINT RightHip
 {
  OFFSET -7.826875 0.019532 0.001973
  CHANNELS 3 Yrotation Xrotation Zrotation
  JOINT RightKnee
  {
   OFFSET 0.000000 -40.546152 -0.001885
   CHANNELS 3 Yrotation Xrotation Zrotation
   JOINT RightAnkle
   {
    OFFSET 0.000000 -39.417092 -0.003189
    CHANNELS 3 Yrotation Xrotation Zrotation
    JOINT RightToe
    {
     OFFSET 0.000000 -7.579396 17.243563
     CHANNELS 3 Yrotation Xrotation Zrotation
     End Site
     {
      OFFSET 0.000000 -1.500329 6.694466
     }
    }
   }
  }
 }
 JOINT LeftHip
 {
  OFFSET 7.826875 0.019532 0.001973
  CHANNELS 3 Yrotation Xrotation Zrotation
  JOINT LeftKnee
  {
   OFFSET 0.000000 -40.546152 -0.001885
   CHANNELS 3 Yrotation Xrotation Zrotation
   JOINT LeftAnkle
   {
    OFFSET 0.000000 -39.417092 -0.003189
    CHANNELS 3 Yrotation Xrotation Zrotation
    JOINT LeftToe
    {
     OFFSET 0.000000 -7.579396 17.243563
     CHANNELS 3 Yrotation Xrotation Zrotation
     End Site
     {
      OFFSET 0.000000 -1.500329 6.694466
     }
    }
   }
  }
 }
}
MOTION
Frames: 8
Frame Time: 0.008333
21.524467 88.254715 -12.291789 45.877729 1.202728 2.182800 2.509615 7.027143 1.621751 1.403771 4.028673 0.889697 1.765597 5.032300 1.128269 1.403771 4.028673 0.889697 2.809300 17.036413 -2.840020 3.638086 -7.717332 -3.663731 -2.278639 2.669746 -4.328354 -14.343805 -6.294701 77.293312 105.312644 3.619013 10.172062 -12.270676 -16.133163 -11.034286 -5.338454 2.546721 0.332361 11.126627 -8.524525 -82.543838 -103.206737 -6.250368 -27.778658 5.349821 17.806192 13.791652 -20.384271 -3.812550 -10.808938 19.371530 -1.172723 -3.553007 19.329785 -4.263621 9.173967 -0.016275 0.011925 -0.004279 15.422579 -8.383903 3.454372 5.435905 2.740438 -0.073789 5.171878 3.583739 -3.471392 0.005277 0.004779 0.005310
21.533732 88.254405 -12.283769 45.899861 1.206250 2.183228 2.509139 7.020530 1.619634 1.403006 4.025886 0.889308 1.764628 5.028819 1.127761 1.403006 4.025886 0.889308 2.828554 17.009465 -2.837428 3.658071 -7.745983 -3.665479 -2.282408 2.680649 -4.316998 -14.339141 -6.282462 77.303752 105.304594 3.632577 10.170208 -12.266598 -16.127043 -11.034949 -5.337028 2.552987 0.332807 11.135026 -8.514953 -82.544683 -103.195129 -6.255343 -27.796213 5.358198 17.812417 13.768706 -20.407466 -3.804444 -10.804605 19.370345 -1.173012 -3.562801 19.311323 -4.268867 9.178430 -0.018876 0.009783 -0.007869 15.415443 -8.380773 3.452131 5.436456 2.737508 -0.069848 5.149572 3.581182 -3.476298 0.004632 0.003679 0.003681
21.544005 88.254145 -12.274496 45.918676 1.209491 2.183743 2.510086 7.012775 1.617977 1.403182 4.022198 0.888201 1.764824 5.024213 1.126363 1.403182 4.022198 0.888201 2.853604 16.983990 -2.833271 3.683949 -7.772850 -3.666975 -2.284948 2.692505 -4.305338 -14.333923 -6.267630 77.311660 105.298517 3.644170 10.168638 -12.258505 -16.124634 -11.043733 -5.336041 2.560190 0.332695 11.145321 -8.503929 -82.545333 -103.187208 -6.253015 -27.814175 5.364886 17.825476 13.751412 -20.423909 -3.798873 -10.804059 19.370664 -1.168740 -3.568525 19.306496 -4.278581 9.180477 -0.019151 0.007361 -0.010421 15.413146 -8.374320 3.449142 5.435323 2.730498 -0.069062 5.140662 3.579605 -3.477063 0.004865 0.003549 0.002699
21.555167 88.253947 -12.263622 45.935391 1.212104 2.182369 2.512074 7.004384 1.617326 1.404252 4.017713 0.886914 1.766135 5.018610 1.124747 1.404252 4.017713 0.886914 2.883520 16.960147 -2.826838 3.714546 -7.797825 -3.667224 -2.289466 2.702266 -4.294688 -14.326251 -6.249042 77.319539 105.293016 3.650550 10.166741 -12.250451 -16.125115 -11.054403 -5.336613 2.567409 0.332492 11.150647 -8.490402 -82.545417 -103.185786 -6.241742 -27.825624 5.369090 17.841110 13.739616 -20.435940 -3.792657 -10.806003 19.372480 -1.163543 -3.569771 19.314545 -4.291606 9.180624 -0.016765 0.004947 -0.012427 15.415625 -8.365644 3.448759 5.429279 2.721489 -0.071843 5.140353 3.577134 -3.474228 0.005580 0.004487 0.001292
21.567616 88.253850 -12.250970 45.948973 1.212289 2.179793 2.514620 6.995805 1.616641 1.406060 4.012564 0.885655 1.768367 5.012175 1.123170 1.406060 4.012564 0.885655 2.918952 16.937893 -2.817707 3.750464 -7.820944 -3.665932 -2.295282 2.709792 -4.286133 -14.315881 -6.227978 77.329103 105.286827 3.650333 10.166636 -12.252866 -16.127213 -11.058044 -5.337234 2.573750 0.331330 11.148744 -8.474764 -82.543072 -103.187931 -6.226302 -27.830210 5.369377 17.856334 13.728176 -20.443903 -3.781332 -10.810630 19.372854 -1.161383 -3.569076 19.329860 -4.304823 9.180729 -0.013549 0.002180 -0.014119 15.423812 -8.352487 3.452238 5.418269 2.711641 -0.075979 5.135008 3.572859 -3.471747 0.006180 0.005531 -0.001245
21.581735 88.253894 -12.236543 45.961547 1.208673 2.177414 2.517157 6.986978 1.615424 1.408059 4.007051 0.884630 1.770840 5.005282 1.121886 1.408059 4.007051 0.884630 2.960984 16.917004 -2.806311 3.792989 -7.842383 -3.663833 -2.302827 2.715914 -4.278476 -14.305656 -6.207770 77.340179 105.277916 3.645220 10.173156 -12.273146 -16.128405 -11.047930 -5.334798 2.579425 0.328746 11.136071 -8.461228 -82.537842 -103.183829 -6.212217 -27.830330 5.363936 17.868145 13.718788 -20.450853 -3.764012 -10.817588 19.370820 -1.160569 -3.568856 19.345301 -4.318291 9.179802 -0.011309 -0.000579 -0.014360 15.434780 -8.333235 3.457755 5.411070 2.700906 -0.079868 5.118084 3.567168 -3.471375 0.006495 0.006480 -0.003417
21.597529 88.254117 -12.220615 45.973033 1.202445 2.176273 2.519966 6.977015 1.612306 1.409759 4.001522 0.883537 1.772938 4.998372 1.120514 1.409759 4.001522 0.883537 3.011026 16.895859 -2.792455 3.843596 -7.863850 -3.661058 -2.308693 2.720774 -4.270285 -14.301034 -6.189165 77.354746 105.269200 3.639434 10.188085 -12.308991 -16.125692 -11.024500 -5.325805 2.584598 0.328862 11.112903 -8.450652 -82.533469 -103.169528 -6.203173 -27.830247 5.353996 17.874981 13.715581 -20.456933 -3.742795 -10.824793 19.368668 -1.158306 -3.568309 19.339790 -4.328863 9.176323 -0.012838 -0.002892 -0.014073 15.447615 -8.311336 3.464031 5.410269 2.694561 -0.083838 5.090236 3.557176 -3.474021 0.006182 0.007565 -0.004055
21.614926 88.254520 -12.203192 45.983158 1.193843 2.176203 2.523318 6.966360 1.607790 1.411483 3.996047 0.881921 1.775060 4.991530 1.118489 1.411483 3.996047 0.881921 3.068269 16.872342 -2.775686 3.901296 -7.887683 -3.656908 -2.312150 2.725733 -4.260353 -14.302856 -6.171622 77.369704 105.264082 3.635172 10.209798 -12.349434 -16.121121 -10.997560 -5.316034 2.588805 0.334571 11.092360 -8.439568 -82.536455 -103.149560 -6.197071 -27.837803 5.344312 17.873778 13.717371 -20.461446 -3.717646 -10.833104 19.366139 -1.155962 -3.567090 19.321285 -4.337732 9.169697 -0.015966 -0.004586 -0.012808 15.460187 -8.288301 3.471712 5.406988 2.695098 -0.089591 5.065798 3.541460 -3.477717 0.005475 0.009008 -0.004049
